<?xml version="1.0" encoding="UTF-8"?>
<svg width="512px" height="512px" viewBox="0 0 512 512" version="1.1" xmlns="http://www.w3.org/2000/svg" xmlns:xlink="http://www.w3.org/1999/xlink">
    <title>icon / bars</title>
    <g id="icon-/-bars" stroke="none" stroke-width="1" fill="none" fill-rule="evenodd">
        <path d="M48,132 L464,132 C472.837,132 480,124.837 480,116 L480,76 C480,67.163 472.837,60 464,60 L48,60 C39.163,60 32,67.163 32,76 L32,116 C32,124.837 39.163,132 48,132 Z M48,292 L464,292 C472.837,292 480,284.837 480,276 L480,236 C480,227.163 472.837,220 464,220 L48,220 C39.163,220 32,227.163 32,236 L32,276 C32,284.837 39.163,292 48,292 Z M48,452 L464,452 C472.837,452 480,444.837 480,436 L480,396 C480,387.163 472.837,380 464,380 L48,380 C39.163,380 32,387.163 32,396 L32,436 C32,444.837 39.163,452 48,452 Z" id="Shape" fill="#000000" fill-rule="nonzero"></path>
    </g>
</svg>