<?xml version="1.0" encoding="UTF-8"?>
<svg width="512px" height="512px" viewBox="0 0 512 512" version="1.1" xmlns="http://www.w3.org/2000/svg" xmlns:xlink="http://www.w3.org/1999/xlink">
    <title>icon / clone</title>
    <g id="icon-/-clone" stroke="none" stroke-width="1" fill="none" fill-rule="evenodd">
        <path d="M464,0 C490.51,0 512,21.49 512,48 L512,336 C512,362.51 490.51,384 464,384 L176,384 C149.49,384 128,362.51 128,336 L128,48 C128,21.49 149.49,0 176,0 L464,0 M176,416 C131.888,416 96,380.112 96,336 L96,128 L48,128 C21.49,128 0,149.49 0,176 L0,464 C0,490.51 21.49,512 48,512 L336,512 C362.51,512 384,490.51 384,464 L384,416 L176,416 Z" id="Shape" fill="#000000" fill-rule="nonzero"></path>
    </g>
</svg>