<?xml version="1.0" encoding="UTF-8"?>
<svg width="512px" height="512px" viewBox="0 0 512 512" version="1.1" xmlns="http://www.w3.org/2000/svg" xmlns:xlink="http://www.w3.org/1999/xlink">
    <title>icon / fast-backward</title>
    <g id="icon-/-fast-backward" stroke="none" stroke-width="1" fill="none" fill-rule="evenodd">
        <path d="M0,436.00635 L0,76.0063503 C0,69.4063503 5.4,64.0063503 12,64.0063503 L52,64.0063503 C58.6,64.0063503 64,69.4063503 64,76.0063503 L64,227.90635 L235.5,71.4063503 C256.1,54.3063503 288,68.6063503 288,96.0063503 L288,227.90635 L459.5,71.4063503 C480.1,54.3063503 512,68.6063503 512,96.0063503 L512,416.00635 C512,443.40635 480.1,457.70635 459.5,440.60635 L288,285.30635 L288,416.00635 C288,443.40635 256.1,457.70635 235.5,440.60635 L64,285.30635 L64,436.00635 C64,442.60635 58.6,448.00635 52,448.00635 L12,448.00635 C5.4,448.00635 0,442.60635 0,436.00635 Z" id="Path" fill="#000000" fill-rule="nonzero"></path>
    </g>
</svg>