<?xml version="1.0" encoding="UTF-8"?>
<svg width="512px" height="512px" viewBox="0 0 512 512" version="1.1" xmlns="http://www.w3.org/2000/svg" xmlns:xlink="http://www.w3.org/1999/xlink">
    <title>icon / fast-forward</title>
    <g id="icon-/-fast-forward" stroke="none" stroke-width="1" fill="none" fill-rule="evenodd">
        <path d="M512,76.0063503 L512,436.00635 C512,442.60635 506.6,448.00635 500,448.00635 L460,448.00635 C453.4,448.00635 448,442.60635 448,436.00635 L448,284.10635 L276.5,440.60635 C255.9,457.80635 224,443.40635 224,416.00635 L224,284.10635 L52.5,440.60635 C31.9,457.80635 0,443.40635 0,416.00635 L0,96.0063503 C0,68.6063503 31.9,54.3063503 52.5,71.4063503 L224,226.80635 L224,96.0063503 C224,68.6063503 255.9,54.3063503 276.5,71.4063503 L448,226.80635 L448,76.0063503 C448,69.4063503 453.4,64.0063503 460,64.0063503 L500,64.0063503 C506.6,64.0063503 512,69.4063503 512,76.0063503 Z" id="Path" fill="#000000" fill-rule="nonzero"></path>
    </g>
</svg>