<?xml version="1.0" encoding="UTF-8"?>
<svg width="576px" height="512px" viewBox="0 0 576 512" version="1.1" xmlns="http://www.w3.org/2000/svg" xmlns:xlink="http://www.w3.org/1999/xlink">
    <title>icon / home</title>
    <g id="icon-/-home" stroke="none" stroke-width="1" fill="none" fill-rule="evenodd">
        <g id="home-lg" transform="translate(0, 0)" fill="#000000" fill-rule="nonzero">
            <path d="M570.699967,236.259945 L512.009967,184.429945 L512.009967,47.9799446 C512.009967,39.1433886 504.846523,31.9799446 496.009967,31.9799446 L432.009967,31.9799446 C423.173411,31.9799446 416.009967,39.1433886 416.009967,47.9799446 L416.009967,99.6699446 L314.759967,10.2899446 C299.584596,-3.42998153 276.485337,-3.42998153 261.309967,10.2899446 L5.30996661,236.289945 C2.15173171,239.125934 0.2498389,243.100661 0.0229046555,247.339268 C-0.204029589,251.577874 1.26259495,255.732951 4.09996661,258.889945 L25.5099666,282.679945 C28.3459562,285.83818 32.3206833,287.740072 36.5592898,287.967007 C40.7978964,288.193941 44.9529733,286.727316 48.1099666,283.889945 L277.429967,81.6099446 C283.478031,76.2742653 292.551902,76.2742653 298.599967,81.6099446 L527.919967,283.879945 C531.07696,286.717316 535.232037,288.183941 539.470643,287.957007 C543.70925,287.730072 547.683977,285.82818 550.519967,282.669945 L571.919967,258.849945 C577.819337,252.274363 577.273203,242.161928 570.699967,236.259945 Z M288.009967,114.979945 L69.4799666,307.689945 C67.8599666,309.149945 65.7899666,309.829945 64.0099666,311.039945 L64.0099666,495.979945 C64.0099666,504.816501 71.1734106,511.979945 80.0099666,511.979945 L208.009967,511.979945 C216.846523,511.979945 224.009967,504.816501 224.009967,495.979945 L224.009967,367.979945 C224.009967,359.143389 231.173411,351.979945 240.009967,351.979945 L336.009967,351.979945 C344.846523,351.979945 352.009967,359.143389 352.009967,367.979945 L352.009967,495.979945 C352.009967,504.816501 359.173411,511.979945 368.009967,511.979945 L496.009967,511.979945 C504.846523,511.979945 512.009967,504.816501 512.009967,495.979945 L512.009967,311.079945 C510.309967,309.919945 508.289967,309.259945 506.749967,307.879945 L288.009967,114.979945 Z" id="Shape"></path>
        </g>
    </g>
</svg>