<?xml version="1.0" encoding="UTF-8"?>
<svg width="512px" height="512px" viewBox="0 0 512 512" version="1.1" xmlns="http://www.w3.org/2000/svg" xmlns:xlink="http://www.w3.org/1999/xlink">
    <title>icon / list-music</title>
    <g id="icon-/-list-music" stroke="none" stroke-width="1" fill="none" fill-rule="evenodd">
        <g id="list-music" fill="#000000" fill-rule="nonzero">
            <path d="M16,255.979615 L272,255.979615 C280.836556,255.979615 288,248.816171 288,239.979615 L288,207.979615 C288,199.143059 280.836556,191.979615 272,191.979615 L16,191.979615 C7.163444,191.979615 0,199.143059 0,207.979615 L0,239.979615 C0,248.816171 7.163444,255.979615 16,255.979615 Z M16,127.979615 L272,127.979615 C280.836556,127.979615 288,120.816171 288,111.979615 L288,79.9796146 C288,71.1430586 280.836556,63.9796146 272,63.9796146 L16,63.9796146 C7.163444,63.9796146 0,71.1430586 0,79.9796146 L0,111.979615 C0,120.816171 7.163444,127.979615 16,127.979615 Z M144,319.979615 L16,319.979615 C7.163444,319.979615 0,327.143059 0,335.979615 L0,367.979615 C0,376.816171 7.163444,383.979615 16,383.979615 L144,383.979615 C152.836556,383.979615 160,376.816171 160,367.979615 L160,335.979615 C160,327.143059 152.836556,319.979615 144,319.979615 Z M470.94,1.30961455 L374.41,29.8196146 C361.083946,34.0056618 352.012747,46.35156 352,60.3196146 L352,359.979615 C336.547576,354.69634 320.330652,351.993519 304,351.979615 C242.14,351.979615 192,387.799615 192,431.979615 C192,476.159615 242.14,511.979615 304,511.979615 C365.86,511.979615 416,476.159615 416,431.979615 L416,148.129615 L489,126.739615 C502.633928,122.743779 512,110.237031 512,96.0296146 L512,31.9796146 C511.993489,21.8926775 507.231364,12.3992611 499.150019,6.36285453 C491.068674,0.326448004 480.614211,-1.54625219 470.94,1.30961455 Z" id="Shape"></path>
        </g>
    </g>
</svg>