<?xml version="1.0" encoding="UTF-8"?>
<svg width="512px" height="512px" viewBox="0 0 512 512" version="1.1" xmlns="http://www.w3.org/2000/svg" xmlns:xlink="http://www.w3.org/1999/xlink">
    <title>icon / list-ul</title>
    <g id="icon-/-list-ul" stroke="none" stroke-width="1" fill="none" fill-rule="evenodd">
        <g id="list-ul" transform="translate(0, 48)" fill="#000000" fill-rule="nonzero">
            <path d="M48,0 C21.490332,0 0,21.490332 0,48 C0,74.509668 21.490332,96 48,96 C74.509668,96 96,74.509668 96,48 C96,21.490332 74.509668,0 48,0 L48,0 Z M48,160 C21.490332,160 0,181.490332 0,208 C0,234.509668 21.490332,256 48,256 C74.509668,256 96,234.509668 96,208 C96,181.490332 74.509668,160 48,160 Z M48,320 C21.490332,320 0,341.490332 0,368 C0,394.509668 21.490332,416 48,416 C74.509668,416 96,394.509668 96,368 C96,341.490332 74.509668,320 48,320 Z M496,336 L176,336 C167.163444,336 160,343.163444 160,352 L160,384 C160,392.836556 167.163444,400 176,400 L496,400 C504.836556,400 512,392.836556 512,384 L512,352 C512,343.163444 504.836556,336 496,336 Z M496,16 L176,16 C167.163444,16 160,23.163444 160,32 L160,64 C160,72.836556 167.163444,80 176,80 L496,80 C504.836556,80 512,72.836556 512,64 L512,32 C512,23.163444 504.836556,16 496,16 Z M496,176 L176,176 C167.163444,176 160,183.163444 160,192 L160,224 C160,232.836556 167.163444,240 176,240 L496,240 C504.836556,240 512,232.836556 512,224 L512,192 C512,183.163444 504.836556,176 496,176 Z" id="Shape"></path>
        </g>
    </g>
</svg>