<?xml version="1.0" encoding="UTF-8"?>
<svg width="512px" height="512px" viewBox="0 0 512 512" version="1.1" xmlns="http://www.w3.org/2000/svg" xmlns:xlink="http://www.w3.org/1999/xlink">
    <title>icon / music</title>
    <g id="icon-/-music" stroke="none" stroke-width="1" fill="none" fill-rule="evenodd">
        <path d="M470.38,1.48049876 L150.41,95.9704988 C137.080428,100.157655 128.008383,112.508752 128,126.480499 L128,387.890499 C117.521485,385.347072 106.782605,384.031559 96,383.970499 C43,383.970499 0,412.630499 0,447.970499 C0,483.310499 43,511.970499 96,511.970499 C149,511.970499 192,483.310499 192,447.970499 L192,214.290499 L448,139.290499 L448,323.900499 C437.522862,321.348324 426.783346,320.029377 416,319.970499 C363,319.970499 320,348.630499 320,383.970499 C320,419.310499 363,447.970499 416,447.970499 C469,447.970499 512,419.320499 512,383.970499 L512,31.9704988 C511.990527,21.7820715 507.129963,12.2070713 498.911011,6.18602747 C490.692059,0.16498361 480.097138,-1.58240293 470.38,1.48049876 Z" id="Path" fill="#000000" fill-rule="nonzero"></path>
    </g>
</svg>