<?xml version="1.0" encoding="UTF-8"?>
<svg width="512px" height="512px" viewBox="0 0 512 512" version="1.1" xmlns="http://www.w3.org/2000/svg" xmlns:xlink="http://www.w3.org/1999/xlink">
    <title>icon / pause</title>
    <g id="icon-/-pause" stroke="none" stroke-width="1" fill="none" fill-rule="evenodd">
        <path d="M164.571429,512 L54.8571429,512 C24.5714286,512 0,487.428571 0,457.142857 L0,54.8571429 C0,24.5714286 24.5714286,0 54.8571429,0 L164.571429,0 C194.857143,0 219.428571,24.5714286 219.428571,54.8571429 L219.428571,457.142857 C219.428571,487.428571 194.857143,512 164.571429,512 Z M512,457.142857 L512,54.8571429 C512,24.5714286 487.428571,0 457.142857,0 L347.428571,0 C317.142857,0 292.571429,24.5714286 292.571429,54.8571429 L292.571429,457.142857 C292.571429,487.428571 317.142857,512 347.428571,512 L457.142857,512 C487.428571,512 512,487.428571 512,457.142857 Z" id="Shape" fill="#000000" fill-rule="nonzero"></path>
    </g>
</svg>