<?xml version="1.0" encoding="UTF-8"?>
<svg width="512px" height="512px" viewBox="0 0 512 512" version="1.1" xmlns="http://www.w3.org/2000/svg" xmlns:xlink="http://www.w3.org/1999/xlink">
    <title>icon / piano</title>
    <g id="icon-/-piano" stroke="none" stroke-width="1" fill="none" fill-rule="evenodd">
        <g id="piano" fill="#000000" fill-rule="nonzero">
            <path d="M476.620014,270.31 L419.380014,241.69 C397.714364,230.857976 384.020522,208.722566 384.000007,184.5 C384.013277,135.572156 364.586063,88.6437305 329.99354,54.0418307 C295.401018,19.4399308 248.477859,0 199.550014,0 L184.450014,0 C135.522168,0 88.5990096,19.4399308 54.0064869,54.0418307 C19.4139643,88.6437305 -0.0132496067,135.572156 6.77978093e-06,184.5 L6.77978093e-06,184.5 L6.77978093e-06,480 C6.77978093e-06,497.673112 14.3269016,512 32.0000068,512 L480.000007,512 C497.673126,512 512.000007,497.673112 512.000007,480 L512.000007,327.55 C512.000007,303.30942 498.301764,281.150084 476.620014,270.31 Z M448.000014,448 L64.0000136,448 L64.0000136,352 L96.0000136,352 L96.0000136,408 C96.0000136,412.418278 99.5817356,416 104.000014,416 L120.000014,416 C124.418292,416 128.000014,412.418278 128.000014,408 L128.000014,352 L160.000014,352 L160.000014,408 C160.000014,412.418278 163.581736,416 168.000014,416 L184.000014,416 C188.418292,416 192.000014,412.418278 192.000014,408 L192.000014,352 L224.000014,352 L224.000014,408 C224.000014,412.418278 227.581736,416 232.000014,416 L248.000014,416 C252.418292,416 256.000014,412.418278 256.000014,408 L256.000014,352 L320.000014,352 L320.000014,408 C320.000014,412.418278 323.581736,416 328.000014,416 L344.000014,416 C348.418292,416 352.000014,412.418278 352.000014,408 L352.000014,352 L384.000014,352 L384.000014,408 C384.000014,412.418278 387.581736,416 392.000014,416 L408.000014,416 C412.418292,416 416.000014,412.418278 416.000014,408 L416.000014,352 L448.000014,352 L448.000014,448 Z" id="Shape"></path>
        </g>
    </g>
</svg>