<?xml version="1.0" encoding="UTF-8"?>
<svg width="512px" height="512px" viewBox="0 0 512 512" version="1.1" xmlns="http://www.w3.org/2000/svg" xmlns:xlink="http://www.w3.org/1999/xlink">
    <title>icon / repeat</title>
    <g id="icon-/-repeat" stroke="none" stroke-width="1" fill="none" fill-rule="evenodd">
        <path d="M493.543527,181.495803 C505.499527,204.100803 512.198527,229.895803 511.995527,257.245803 C511.338527,345.397803 438.559527,416.032803 350.403527,416.032803 L191.999527,416.032803 L191.999527,463.527803 C191.999527,486.002803 165.822527,495.795803 151.028527,481.002803 L71.0285268,401.002803 C61.6565268,391.629803 61.6565268,376.433803 71.0285268,367.061803 L151.028527,287.061803 C166.137527,271.952803 191.999527,282.718803 191.999527,304.032803 L191.999527,352.032803 L350.874527,352.032803 C403.686527,352.032803 447.449527,309.850803 447.994527,257.040803 C448.149527,241.995803 444.824527,227.728803 438.776527,214.994803 C434.414527,205.809803 436.355527,194.870803 443.576527,187.710803 C448.321527,183.004803 452.217527,179.155803 455.452527,175.924803 C466.820527,164.572803 486.031527,167.293803 493.543527,181.495803 Z M64.0045268,255.024803 C64.5495268,202.214803 108.312527,160.032803 161.124527,160.032803 L319.999527,160.032803 L319.999527,207.537803 C319.999527,229.911803 346.120527,239.849803 360.970527,225.002803 L440.970527,145.002803 C450.342527,135.629803 450.342527,120.433803 440.970527,111.061803 L360.970527,31.0618031 C346.013527,16.1098031 319.999527,26.2888031 319.999527,48.5778031 L319.999527,96.0328031 L161.595527,96.0328031 C73.4395268,96.0328031 0.660526833,166.667803 0.0045268335,254.820803 C-0.199473167,282.170803 6.49952683,307.965803 18.4565268,330.570803 C25.9685268,344.772803 45.1795268,347.493803 56.5475268,336.140803 C59.7825268,332.909803 63.6775268,329.060803 68.4235268,324.354803 C75.6435268,317.194803 77.5855268,306.256803 73.2235268,297.070803 C67.1745268,284.335803 63.8495268,270.069803 64.0045268,255.024803 Z" id="Shape" fill="#000000" fill-rule="nonzero"></path>
    </g>
</svg>