<?xml version="1.0" encoding="UTF-8"?>
<svg width="576px" height="512px" viewBox="0 0 576 512" version="1.1" xmlns="http://www.w3.org/2000/svg" xmlns:xlink="http://www.w3.org/1999/xlink">
    <title>icon / shopping-cart</title>
    <g id="icon-/-shopping-cart" stroke="none" stroke-width="1" fill="none" fill-rule="evenodd">
        <path d="M528.12,301.319 L575.393,93.319 C578.806,78.301 567.391,64 551.99,64 L159.208,64 L150.042,19.19 C147.758,8.021 137.93,0 126.529,0 L24,0 C10.745,0 0,10.745 0,24 L0,40 C0,53.255 10.745,64 24,64 L93.883,64 L164.131,407.435 C147.325,417.1 136,435.222 136,456 C136,486.928 161.072,512 192,512 C222.928,512 248,486.928 248,456 C248,440.326 241.553,426.165 231.176,416 L440.823,416 C430.447,426.165 424,440.326 424,456 C424,486.928 449.072,512 480,512 C510.928,512 536,486.928 536,456 C536,433.828 523.112,414.668 504.421,405.595 L509.938,381.319 C513.351,366.301 501.936,352 486.535,352 L218.117,352 L211.572,320 L504.717,320 C515.923,320 525.637,312.246 528.12,301.319 Z" id="Path" fill="#000000" fill-rule="nonzero"></path>
    </g>
</svg>