<?xml version="1.0" encoding="UTF-8"?>
<svg width="512px" height="512px" viewBox="0 0 512 512" version="1.1" xmlns="http://www.w3.org/2000/svg" xmlns:xlink="http://www.w3.org/1999/xlink">
    <title>icon / shuffle</title>
    <g id="icon-/-shuffle" stroke="none" stroke-width="1" fill="none" fill-rule="evenodd">
        <path d="M403.8,34.4556697 C415.8,29.4556697 429.5,32.2556697 438.7,41.3556697 L502.7,105.35567 C508.7,111.35567 512.1,119.45567 512.1,127.95567 C512.1,136.45567 508.7,144.55567 502.7,150.55567 L438.7,214.55567 C429.5,223.75567 415.8,226.45567 403.8,221.45567 C391.8,216.45567 384,204.85567 384,191.85567 L384,160.05567 L352,160.05567 C341.9,160.05567 332.4,164.75567 326.4,172.85567 L284,229.35567 L244,176.05567 L275.2,134.45567 C293.3,110.25567 321.8,96.0556697 352,96.0556697 L384,96.0556697 L384,64.0556697 C384,51.1556697 391.8,39.4556697 403.8,34.4556697 Z M164,282.75567 L204,336.05567 L172.8,377.65567 C154.7,401.85567 126.2,416.05567 96,416.05567 L32,416.05567 C14.3,416.05567 1.70530257e-13,401.75567 1.70530257e-13,384.05567 C1.70530257e-13,366.35567 14.3,352.05567 32,352.05567 L96,352.05567 C106.1,352.05567 115.6,347.35567 121.6,339.25567 L164,282.75567 Z M438.6,470.75567 C429.4,479.95567 415.7,482.65567 403.7,477.65567 C391.7,472.65567 383.9,461.05567 383.9,448.05567 L383.9,416.05567 L352,416.05567 C321.8,416.05567 293.3,401.85567 275.2,377.65567 L121.6,172.85567 C115.6,164.75567 106.1,160.05567 96,160.05567 L32,160.05567 C14.3,160.05567 1.70530257e-13,145.75567 1.70530257e-13,128.05567 C1.70530257e-13,110.35567 14.3,96.0556697 32,96.0556697 L96,96.0556697 C126.2,96.0556697 154.7,110.25567 172.8,134.45567 L326.4,339.25567 C332.4,347.35567 341.9,352.05567 352,352.05567 L384,352.05567 L384,320.05567 C384,307.15567 391.8,295.45567 403.8,290.45567 C415.8,285.45567 429.5,288.25567 438.7,297.35567 L502.7,361.35567 C508.7,367.35567 512.1,375.45567 512.1,383.95567 C512.1,392.45567 508.7,400.55567 502.7,406.55567 L438.7,470.55567 L438.6,470.75567 Z" id="Shape" fill="#000000" fill-rule="nonzero"></path>
    </g>
</svg>