<?xml version="1.0" encoding="UTF-8"?>
<svg width="512px" height="512px" viewBox="0 0 512 512" version="1.1" xmlns="http://www.w3.org/2000/svg" xmlns:xlink="http://www.w3.org/1999/xlink">
    <title>icon / trash-alt</title>
    <g id="icon-/-trash-alt" stroke="none" stroke-width="1" fill="none" fill-rule="evenodd">
        <path d="M32,84 L32,56 C32,42.7 42.7,32 56,32 L168,32 L177.4,13.3 C181.4,5.1 189.7,0 198.8,0 L313.1,0 C322.2,0 330.5,5.1 334.6,13.3 L344,32 L456,32 C469.3,32 480,42.7 480,56 L480,84 C480,90.6 474.6,96 468,96 L44,96 C37.4,96 32,90.6 32,84 Z M448,140 L448,464 C448,490.5 426.5,512 400,512 L112,512 C85.5,512 64,490.5 64,464 L64,140 C64,133.4 69.4,128 76,128 L436,128 C442.6,128 448,133.4 448,140 Z M176,208 C176,199.2 168.8,192 160,192 C151.2,192 144,199.2 144,208 L144,432 C144,440.8 151.2,448 160,448 C168.8,448 176,440.8 176,432 L176,208 Z M272,208 C272,199.2 264.8,192 256,192 C247.2,192 240,199.2 240,208 L240,432 C240,440.8 247.2,448 256,448 C264.8,448 272,440.8 272,432 L272,208 Z M368,208 C368,199.2 360.8,192 352,192 C343.2,192 336,199.2 336,208 L336,432 C336,440.8 343.2,448 352,448 C360.8,448 368,440.8 368,432 L368,208 Z" id="Shape" fill="#000000" fill-rule="nonzero"></path>
    </g>
</svg>