<?xml version="1.0" encoding="UTF-8"?>
<svg width="512px" height="512px" viewBox="0 0 512 512" version="1.1" xmlns="http://www.w3.org/2000/svg" xmlns:xlink="http://www.w3.org/1999/xlink">
    <title>icon / up-right-and-down-left-from-center-solid</title>
    <g id="icon-/-up-right-and-down-left-from-center-solid" stroke="none" stroke-width="1" fill="none" fill-rule="evenodd">
        <path d="M344,0 L488,0 C501.3,0 512,10.7 512,24 L512,168 C512,177.7 506.2,186.5 497.2,190.2 C488.2,193.9 477.9,191.9 471,185 L432,146 L345,233 C335.6,242.4 320.4,242.4 311.1,233 L279.1,201 C269.7,191.6 269.7,176.4 279.1,167.1 L366.1,80.1 L327,41 C320.1,34.1 318.1,23.8 321.8,14.8 C325.5,5.8 334.3,0 344,0 Z M168,512 L24,512 C10.7,512 0,501.3 0,488 L0,344 C0,334.3 5.8,325.5 14.8,321.8 C23.8,318.1 34.1,320.1 41,327 L80,366 L167,279 C176.4,269.6 191.6,269.6 200.9,279 L232.9,311 C242.3,320.4 242.3,335.6 232.9,344.9 L145.9,431.9 L184.9,470.9 C191.8,477.8 193.8,488.1 190.1,497.1 C186.4,506.1 177.6,511.9 167.9,511.9 L168,512 Z" id="Shape" fill="#000000" fill-rule="nonzero"></path>
    </g>
</svg>