<?xml version="1.0" encoding="UTF-8"?>
<svg width="640px" height="512px" viewBox="0 0 640 512" version="1.1" xmlns="http://www.w3.org/2000/svg" xmlns:xlink="http://www.w3.org/1999/xlink">
    <title>icon / user-friends</title>
    <g id="icon-/-user-friends" stroke="none" stroke-width="1" fill="none" fill-rule="evenodd">
        <path d="M192,256 C253.9,256 304,205.9 304,144 C304,82.1 253.9,32 192,32 C130.1,32 80,82.1 80,144 C80,205.9 130.1,256 192,256 Z M268.8,288 L260.5,288 C239.7,298 216.6,304 192,304 C167.4,304 144.4,298 123.5,288 L115.2,288 C51.6,288 0,339.6 0,403.2 L0,432 C0,458.5 21.5,480 48,480 L336,480 C362.5,480 384,458.5 384,432 L384,403.2 C384,339.6 332.4,288 268.8,288 Z M480,256 C533,256 576,213 576,160 C576,107 533,64 480,64 C427,64 384,107 384,160 C384,213 427,256 480,256 Z M528,288 L524.2,288 C510.3,292.8 495.6,296 480,296 C464.4,296 449.7,292.8 435.8,288 L432,288 C411.6,288 392.8,293.9 376.3,303.4 C400.7,329.7 416,364.6 416,403.2 L416,441.6 C416,443.8 415.5,445.9 415.4,448 L592,448 C618.5,448 640,426.5 640,400 C640,338.1 589.9,288 528,288 L528,288 Z" id="Shape" fill="#000000" fill-rule="nonzero"></path>
    </g>
</svg>