<?xml version="1.0" encoding="UTF-8"?>
<svg width="512px" height="512px" viewBox="0 0 512 512" version="1.1" xmlns="http://www.w3.org/2000/svg" xmlns:xlink="http://www.w3.org/1999/xlink">
    <title>icon / volume</title>
    <g id="icon-/-volume" stroke="none" stroke-width="1" fill="none" fill-rule="evenodd">
        <path d="M231.03,71.0458466 L142.06,159.995847 L40,159.995847 C26.74,159.995847 16,170.735847 16,183.995847 L16,327.995847 C16,341.245847 26.74,351.995847 40,351.995847 L142.06,351.995847 L231.03,440.945847 C246.06,455.975847 272,445.415847 272,423.975847 L272,88.0158466 C272,66.5558466 246.04,56.0358466 231.03,71.0458466 Z M496,255.995847 C496,192.465847 463.94,134.055847 410.23,99.7558466 C399.04,92.6158466 384.2,95.9358466 377.11,107.215847 C370.02,118.495847 373.33,133.425847 384.52,140.575847 C424.27,165.965847 448,209.105847 448,255.995847 C448,302.885847 424.27,346.025847 384.52,371.415847 C373.33,378.555847 370.02,393.485847 377.11,404.775847 C383.62,415.135847 398.23,419.915847 410.23,412.235847 C463.94,377.935847 496,319.525847 496,255.995847 Z M354.23,179.125847 C342.65,172.795847 328.04,176.965847 321.62,188.575847 C315.23,200.185847 319.46,214.775847 331.07,221.185847 C343.98,228.275847 352,241.625847 352,255.995847 C352,270.375847 343.98,283.715847 331.08,290.805847 C319.47,297.215847 315.24,311.805847 321.63,323.415847 C328.06,335.075847 342.68,339.215847 354.24,332.865847 C382.47,317.315847 400.01,287.865847 400.01,255.985847 C400.01,224.105847 382.47,194.665847 354.23,179.125847 Z" id="Shape" fill="#000000" fill-rule="nonzero"></path>
    </g>
</svg>