<?xml version="1.0" encoding="UTF-8"?>
<svg width="512px" height="512px" viewBox="0 0 512 512" version="1.1" xmlns="http://www.w3.org/2000/svg" xmlns:xlink="http://www.w3.org/1999/xlink">
    <title>icon / xmark-solid</title>
    <g id="icon-/-xmark-solid" stroke="none" stroke-width="1" fill="none" fill-rule="evenodd">
        <path d="M406.675,150.675 C419.175,138.175 419.175,117.875 406.675,105.375 C394.175,92.875 373.875,92.875 361.375,105.375 L256.075,210.775 L150.675,105.475 C138.175,92.975 117.875,92.975 105.375,105.475 C92.875,117.975 92.875,138.275 105.375,150.775 L210.775,256.075 L105.475,361.475 C92.975,373.975 92.975,394.275 105.475,406.775 C117.975,419.275 138.275,419.275 150.775,406.775 L256.075,301.375 L361.475,406.675 C373.975,419.175 394.275,419.175 406.775,406.675 C419.275,394.175 419.275,373.875 406.775,361.375 L301.375,256.075 L406.675,150.675 Z" id="Path" fill="#000000" fill-rule="nonzero"></path>
    </g>
</svg>